<?xml version="1.0" encoding="UTF-8"?>
<svg xmlns="http://www.w3.org/2000/svg" viewBox="0 0 851 883" width="851" height="883">
<path d="M574.82 37.06C574.65 36.85 574.49 36.65 574.33 36.44C571.42 36.44 568.52 36.43 565.62 36.43C565.44 36.65 565.27 36.87 565.09 37.09C564.41 37.52 563.72 37.96 563.03 38.39C567.36 39.4 576.28 36.33 575.91 43.09C573.61 44.74 570.76 44.52 568.09 45.29C562.98 46.76 558.04 49.41 552.94 51.01C548.03 52.55 543.69 52.59 540.35 57.02C538.37 59.65 538.07 63.83 536.99 66.84C535.39 71.27 535.16 75.81 534.17 80.35C533.21 84.81 532.14 89.19 531.4 93.84C530.89 96.99 530.94 100.28 530.18 103.33C528.84 108.66 527.85 114.6 525.93 119.92C523.75 125.93 520.52 131.71 519.17 137.99C516.35 151.14 514.47 164.71 511.13 177.7C506.96 193.87 495.03 210.9 498.15 228.35C499.99 238.59 514.19 244.99 518.96 253.92C524.71 264.68 522.54 276.05 522.49 287.76C522.47 293.13 522.36 298.5 522.19 303.81C522.1 306.35 522.67 308.95 522.17 311.51C520.72 318.82 520.11 326.54 518.12 333.64C515.18 344.16 509.09 353.81 505.34 363.98C502.54 371.56 501.88 379.78 498.87 387.34C496.35 393.68 493.5 400.06 490.68 406.3C488.79 410.49 485.27 414.38 484.35 419.02C483.5 423.31 484.83 428.22 484.24 432.62C482.97 442.1 482.47 452.6 480.1 461.88C477.13 473.5 473.31 485.5 469.14 496.76C467.85 500.25 466.13 503.94 465.27 507.55C463.68 514.19 461.9 521.15 460.34 527.86C459.1 533.17 459.24 538.94 458.05 544.24C456.52 551.09 453.85 557.89 451.69 564.57C450.25 569.03 447.97 572.7 447.31 577.49C445.86 588.01 447.16 598.59 446.53 609.16C446 618.27 445.31 627.39 443.97 636.45C443.78 636.59 443.59 636.73 443.4 636.86C443.48 639.18 443.56 641.49 443.65 643.8C442.72 655.29 442.47 666.56 443.23 678.03C443.58 683.23 443.34 688.67 444.3 693.82C445.36 699.54 448.73 704.82 450.15 710.46C451.88 717.31 452.2 726.12 451.08 733.09C450.93 733.21 450.77 733.33 450.61 733.44C450.66 735.54 450.7 737.63 450.75 739.72C449.53 748.82 447.42 758.05 445.32 767.03C443.84 773.36 443.74 780.22 442.25 786.48C440.78 792.68 435.06 796 428.87 793.06C425 791.23 425.29 784.02 424.86 780.15C423.45 767.63 427.18 755.81 421.58 744.04C417.37 735.2 408.57 726.85 411.92 715.88C415.15 705.28 427.03 701.75 425.68 689.13C423.03 664.33 412.43 641.1 409.93 616.28C408.59 602.95 411.39 588.74 415.13 576.1C416.66 570.91 418.8 565.69 419.72 560.23C421.33 550.69 421.53 540.97 422.88 531.25C423.12 531.09 423.35 530.94 423.58 530.79C423.44 528.02 423.29 525.25 423.15 522.47C423.15 515.61 423.15 508.75 423.15 501.89C423.07 499.55 422.99 497.21 422.9 494.88C422.72 492.51 422.54 490.14 422.35 487.77C422.38 484.69 422.41 481.62 422.44 478.54C422.31 478.44 422.18 478.34 422.06 478.24C420.7 469.37 420.78 460.92 422.04 452.01C422.22 451.88 422.39 451.75 422.57 451.62C422.49 449.33 422.42 447.04 422.35 444.75C423.14 436.31 423.92 427.86 424.71 419.42C418.59 414.41 408.93 408.15 404.38 401.89C400.27 396.24 395.93 390.72 392.31 384.73C389.09 379.39 386.98 373.25 383.56 368.04C379.46 361.8 375.4 355.55 371.62 349.03C368.29 343.27 364.41 337.82 360.71 332.32C358.49 329.02 355.66 326.65 354.98 322.59C362.56 317.37 369.81 311.46 377.85 306.94C380.13 305.66 382.33 303.26 385.12 303.12C389.5 302.92 395.4 307.61 398.98 309.77C406.23 314.15 413.21 318.66 419.88 323.75C425.12 327.75 430.36 335.82 435.79 338.8C439.21 337.3 443.19 335.51 446.87 334.99C452.92 334.14 460.23 335.87 463.89 329.61C467.06 324.21 465.82 317.03 464.17 311.37C460.69 299.5 452.68 287.91 443.88 279.27C441.3 276.73 433.12 268.44 429.58 268.82C426.7 269.12 424.82 272 422.69 273.59C417.55 277.43 412.95 281.78 407.73 285.55C403.87 288.34 400.05 291.58 396.06 294.16C388.91 298.78 381.37 302.63 374.24 307.39C369.3 310.68 364.91 314.45 359.92 317.58C355.7 320.22 350.95 321.46 346.49 323.38C334.06 328.72 321.06 332.56 308.19 336.14C303.78 337.38 299.19 337.89 294.87 339.2C287.43 341.46 275.55 342.16 269.19 346.42C263.74 350.07 263.72 353.94 260.14 358.72C257.09 362.79 252.97 365.9 250.36 370.3C248.02 374.25 245.19 381.73 240.26 382.23C236.31 377.23 242.25 370.49 243.37 365.34C235.05 367.65 231.63 377.28 225.66 382.79C222.91 385.33 219.35 388.79 215.82 385.92C218.07 381.7 220.33 377.47 222.58 373.25C218.56 373.87 215.28 377.86 210.89 375.63C212.59 370.13 219.48 367.07 223.62 363.33C236.89 351.35 249.4 339.85 266.08 332.86C276.54 328.47 286.71 323.4 297.06 318.84C304.38 315.62 311.22 310.74 318.78 308.24C325.62 305.98 332.38 303.46 339.2 301.16C341.26 300.47 343.53 300.2 345.47 299.09C351.33 295.72 355.75 291.08 360.95 286.87C364.46 284.03 368.37 281.43 372.03 278.82C373.64 277.67 374.75 275.78 376.27 274.53C381.8 269.97 388.01 266.38 392.35 260.54C393.88 258.49 396.08 256.86 397.77 254.93C402.4 249.68 406.93 243.93 412.96 240.16C416.17 238.16 420.53 235.56 424.06 234.24C428.53 232.56 433.03 231.68 436.23 227.66C442.12 220.24 437.08 207.32 429.02 204.07C428.9 203.92 428.78 203.77 428.67 203.63C423.69 203.68 418.7 203.73 413.72 203.78C401.9 201.34 400.29 198.12 391.46 191.32C388.31 193.76 386.01 196.21 381.88 196.94C370.2 199.01 357 188.73 359.79 176.14C361.4 168.87 367.1 164.03 374.02 161.92C377.86 160.75 380.58 161.52 384.34 162.42C386.72 159.74 387.16 155.87 389.15 152.87C395.34 143.57 403.35 136.02 414.22 132.72C417.72 131.66 421.74 129.99 425.5 130.85C428.68 131.58 433.5 132.32 436.33 134.15C438.77 135.73 441.08 138.97 444.07 139.66C448.63 140.72 453.01 138.6 457.18 141.31C457.25 142.89 457.32 144.47 457.39 146.06C461.14 147.37 460.58 147.73 462.85 150.35C463.55 151.16 464.96 151.22 465.7 152.1C466.34 152.87 466.37 153.94 467.04 154.67C468.73 156.5 470.87 156.93 471.92 159.51C475.01 167.07 459.78 174.31 459.34 182.47C458.86 191.41 468.13 202.26 472.21 209.97C474.72 207.05 474.86 202.19 476.08 198.44C478.54 190.84 481.41 183.31 484.07 175.74C487.5 165.98 490.43 156.08 492.78 146.06C493.97 140.99 495.91 135.93 496.77 130.85C496.98 129.61 496.57 128.32 496.81 127.06C497.98 120.9 499.39 114.79 500.95 108.87C501.89 105.31 504.19 102.43 505.63 99.1C508.42 92.66 511.79 86.35 514.09 79.74C514.65 78.13 515.94 76.88 516.53 75.28C520.31 64.92 524.1 53.54 531.63 45.17C536.99 39.21 543.46 34.83 550.1 30.39C553.68 28 557.05 24.75 561.31 23.42C566.7 21.74 571.95 20.69 577.45 19.74C581.95 18.96 586.73 16.36 591.07 18.6C589.14 24.8 580.48 25.56 575.49 28.89C580.98 31.01 586.46 33.12 591.95 35.23C590.93 40.65 578.68 37.85 574.82 37.06ZM362.2 282.22C361.31 284.61 359.13 286.25 357.37 288.09C351.2 294.54 344.37 299.3 335.25 300.33C327.85 295.21 322.25 287.04 315.56 280.95C313.07 278.68 309.97 277.06 307.38 274.88C301.55 269.98 294.94 263.9 290.35 257.83C284.98 250.74 280.35 243.06 275.28 235.74C269.67 227.64 263.48 220.1 257.64 212.15C253.75 206.86 249.15 202.09 243.81 198.37C240.42 196.01 236.16 195.32 233.02 192.47C227.18 187.2 224.47 179.99 220.38 173.46C216.16 166.74 208.46 163.14 203.06 157.53C198.26 152.55 195.41 145.51 193.79 138.96C192.32 133.04 191.89 127.28 197.57 123.34C202.63 119.83 208.49 123.8 212.79 126.48C217.62 129.48 227.71 136.86 230.71 141.7C234.09 147.14 235.23 155.08 239.79 159.59C245.29 165.04 252.44 166.38 257.41 171.27C260.58 174.38 263.07 178.1 264.14 182.49C264.4 183.56 263.92 184.72 264.25 185.74C265.11 188.39 267.97 190.88 269.88 192.81C273.83 196.81 278.69 200.09 283.24 203.27C287.21 206.03 290.62 209.8 294.58 212.46C299.34 215.64 304.1 219.21 308.72 222.72C317.82 229.63 326.22 240.36 332.67 249.56C335.07 252.97 336.9 256.83 339.41 260.27C343.88 266.39 350.83 271.45 356.48 276.4C358.77 278.4 360.92 279.24 362.2 282.22ZM80.75 456.41C111.09 456.42 141.44 456.43 171.78 456.44C174.95 456.43 178.12 456.43 181.28 456.43C183.66 456.43 186.03 456.42 188.41 456.41C190.78 456.41 193.16 456.41 195.53 456.42C265.2 456.42 334.86 456.42 404.52 456.42C408.35 456.46 413.25 455.98 416.79 457.56C416.79 461.97 416.79 466.39 416.79 470.81C411.5 472.68 404.29 471.71 398.58 471.71C386.71 471.71 374.84 471.66 362.96 471.74C322.86 472 282.74 471.69 242.63 471.75C230.76 471.77 218.88 471.8 207.01 471.75C201.02 471.73 193.77 470.68 187.99 472.21C186.02 480.32 187.4 489.95 187.38 498.33C187.37 503.39 186.46 509.46 188.01 514.27C194.86 516.04 203.11 515.03 210.18 514.88C222.3 514.63 234.45 514.92 246.59 514.83C284.85 514.56 323.12 515.57 361.38 514.94C375.09 514.72 388.83 514.74 402.54 514.94C408.11 515.03 414.48 514.11 419.77 515.75C419.76 519.97 419.76 524.19 419.76 528.41C415.53 530.54 409.66 529.56 404.92 529.56C395.05 529.57 379.63 531 370.48 529.17C367.32 529.17 364.15 529.17 360.98 529.17C356.23 529.17 351.48 529.17 346.73 529.16C324.04 529.17 301.35 529.17 278.65 529.17C274.17 529.17 269.68 529.17 265.2 529.17C262.56 529.17 259.92 529.17 257.28 529.17C253.06 529.17 248.84 529.17 244.61 529.17C242.5 529.17 240.39 529.17 238.28 529.17C233.79 529.17 229.31 529.17 224.82 529.17C217.17 529.17 209.52 529.17 201.87 529.17C201.34 529.17 200.81 529.17 200.28 529.17C196.98 529.03 193.68 528.89 190.39 528.75C190.24 528.98 190.09 529.2 189.94 529.43C189.13 529.88 188.31 530.33 187.5 530.79C187.09 545.52 187.39 560.34 187.39 575.12C187.38 587.23 186.97 599.46 187.43 611.53C188.58 642.07 187.21 672.8 187.45 703.36C187.52 712.92 188.3 722.36 188.31 731.86C188.31 735.69 187.29 741.38 187.51 744.53C188.22 754.74 188.95 765.17 187.56 775.4C188.12 776.88 187.87 776.75 189.27 777.46C189.38 777.6 189.49 777.75 189.59 777.89C194.83 777.84 200.06 777.79 205.29 777.74C206.5 777.99 208.09 777.98 209.21 778.48C214.29 780.76 214.54 788.43 210.11 791.18C188.62 791.18 167.14 791.19 145.66 791.19C139.48 789.9 139.24 781.87 144.57 778.73C145.66 778.09 147.36 778.03 148.58 777.75C153.55 777.79 158.51 777.83 163.47 777.87C163.58 777.74 163.68 777.6 163.78 777.47C167.25 775.69 165.44 766.4 165.47 762.73C165.62 747.98 165.54 733.15 165.56 718.4C165.6 678.5 165.53 638.71 165.58 598.87C165.61 576.02 166.92 552.72 165.31 529.99C164.29 529.8 163.28 529.61 162.27 529.42C158.8 527.61 144.49 528.73 139.72 528.74C126.53 528.75 113.33 528.72 100.14 528.72C93.66 528.73 86.23 527.78 79.95 529.17C71.6 529.6 71.04 516.05 80.35 515.07C87.08 514.35 94.17 514.98 100.93 514.98C113.86 514.98 126.8 514.82 139.72 514.92C146.03 514.97 159.73 516.28 165.05 514.22C166.36 509.36 165.52 504.14 165.54 499.12C165.57 491.15 166.99 479.84 165.05 472.29C157.89 470.65 149.48 471.78 142.1 471.78C128.11 471.77 114.13 471.77 100.14 471.77C93.68 471.77 86.79 472.45 80.37 471.75C70.71 470.69 70.7 457.42 80.75 456.41ZM778.85 471.2C775.57 469.38 764.7 470.55 760.36 470.55C744.53 470.54 728.69 470.46 712.86 470.57C708.02 470.6 696.07 469.25 692.55 471.29C692.05 471.48 691.54 471.67 691.04 471.85C689.41 474.37 690.18 478.66 690.18 481.71C690.17 489.36 690.19 497.01 690.19 504.66C690.19 507.75 689.4 512.08 691.06 514.57C691.35 514.79 691.64 515.01 691.93 515.23C695.37 517.34 708.85 516 713.65 516C728.96 516.01 744.26 515.97 759.57 515.99C764.88 515.99 775.13 517.3 779.72 515.44C786.26 518.37 786.12 527.78 778.57 529.37C775.87 529.95 772.61 529.43 769.86 529.42C762.21 529.41 754.55 529.36 746.9 529.36C733.97 529.37 721.04 529.43 708.11 529.38C702.5 529.36 696.64 529.89 691.09 529.22C689.33 530.98 690.24 540.3 690.22 543.45C690.18 557.44 690.26 571.42 690.2 585.41C689.99 632.11 690.05 678.82 690.16 725.53C690.19 737.66 690.16 749.8 690.14 761.94C690.13 766.05 688.87 773.29 691.02 776.62C691.3 776.9 691.59 777.18 691.87 777.46C695.05 779.09 705.63 778.33 709.53 777.79C716.65 779.42 719.88 784.72 714.44 790.65C699.53 791.47 684.33 791.02 669.32 791C663.7 790.99 653.06 792.39 648.04 790.53C640.67 787.8 646.51 777.59 654.68 777.76C659.29 777.9 663.91 778.04 668.53 778.18C668.69 777.95 668.85 777.71 669.01 777.47C670.92 774.75 669.72 763.49 669.75 759.57C669.87 743.47 669.79 727.37 669.76 711.28C669.65 650.64 671.15 589.79 669.72 529.2C651.46 529.86 633.01 529.38 614.7 529.36C584.62 529.32 554.54 529.51 524.45 529.45C511 529.42 497.54 529.27 484.08 529.35C478.31 529.39 470.09 530.78 464.86 528.41C464.83 524.28 465.53 519.46 467.81 515.95C516.77 515.57 565.74 516.04 614.7 515.99C627.63 515.97 640.56 516.03 653.49 516C657.72 515.99 665.6 517.37 668.92 515.17C670.76 513.12 669.77 508.23 669.77 505.45C669.8 497.27 669.8 489.09 669.78 480.91C669.77 478.17 670.81 473.13 668.85 471.24C666.01 469.54 660.17 470.56 656.66 470.55C646.63 470.51 636.6 470.59 626.57 470.55C592.54 470.44 558.49 470.48 524.45 470.55C515.48 470.56 506.51 470.5 497.54 470.54C494.17 470.56 488.94 469.65 486.16 471.23C484.14 471.26 483.43 471.08 481.84 469.83C482.85 465.61 483.86 461.39 484.87 457.17C490.28 454.93 498.06 456.32 503.87 456.29C517.59 456.24 531.31 456.21 545.04 456.21C592.27 456.21 639.51 455.96 686.74 456.18C707.58 456.28 728.43 456.03 749.28 456.2C758.06 456.27 767.48 455.2 776.19 456.27C785.93 457.47 787.92 466.97 778.85 471.2Z" fill="#fe9ac9" fill-rule="evenodd" stroke="#fe9ac9" stroke-width="0.25" stroke-linejoin="round"/>
<path d="M574.82 37.06C571.58 37.07 568.34 37.08 565.09 37.09C565.27 36.87 565.44 36.65 565.62 36.43C568.52 36.43 571.42 36.44 574.33 36.44C574.49 36.65 574.65 36.85 574.82 37.06ZM413.72 203.78C418.7 203.73 423.69 203.68 428.67 203.63C428.78 203.77 428.9 203.92 429.02 204.07C423.92 203.97 418.82 203.88 413.72 203.78ZM422.35 444.75C422.42 447.04 422.49 449.33 422.57 451.62C422.39 451.75 422.22 451.88 422.04 452.01C422.14 449.59 422.25 447.17 422.35 444.75ZM171.78 456.44C141.44 456.43 111.09 456.42 80.75 456.41C111.09 456.42 141.44 456.43 171.78 456.44ZM188.41 456.41C186.03 456.42 183.66 456.43 181.28 456.43C181.41 456.29 181.55 456.15 181.68 456.01C183.79 456.01 185.9 456.01 188.01 456.01C188.14 456.14 188.28 456.28 188.41 456.41ZM404.52 456.42C334.86 456.42 265.2 456.42 195.53 456.42C265.2 456.42 334.86 456.42 404.52 456.42ZM668.85 471.24C607.95 471.23 547.06 471.23 486.16 471.23C488.94 469.65 494.17 470.56 497.54 470.54C506.51 470.5 515.48 470.56 524.45 470.55C558.49 470.48 592.54 470.44 626.57 470.55C636.6 470.59 646.63 470.51 656.66 470.55C660.17 470.56 666.01 469.54 668.85 471.24ZM778.85 471.2C750.08 471.23 721.32 471.26 692.55 471.29C696.07 469.25 708.02 470.6 712.86 470.57C728.69 470.46 744.53 470.54 760.36 470.55C764.7 470.55 775.57 469.38 778.85 471.2ZM691.04 471.85C691.05 486.09 691.05 500.33 691.06 514.57C689.4 512.08 690.19 507.75 690.19 504.66C690.19 497.01 690.17 489.36 690.18 481.71C690.18 478.66 689.41 474.37 691.04 471.85ZM422.06 478.24C422.18 478.34 422.31 478.44 422.44 478.54C422.41 481.62 422.38 484.69 422.35 487.77C422.25 484.59 422.16 481.42 422.06 478.24ZM422.9 494.88C422.99 497.21 423.07 499.55 423.15 501.89C423.02 501.76 422.88 501.63 422.75 501.5C422.8 499.29 422.85 497.08 422.9 494.88ZM668.92 515.17C665.6 517.37 657.72 515.99 653.49 516C640.56 516.03 627.63 515.97 614.7 515.99C565.74 516.04 516.77 515.57 467.81 515.95C471.28 513.77 478.32 515 482.5 514.98C494.37 514.9 506.25 515.03 518.12 514.92C551.1 514.62 584.09 514.91 617.07 514.88C628.42 514.87 639.77 514.91 651.11 514.91C656.87 514.91 663.33 514.16 668.92 515.17ZM691.93 515.23C721.19 515.3 750.46 515.37 779.72 515.44C775.13 517.3 764.88 515.99 759.57 515.99C744.26 515.97 728.96 516.01 713.65 516C708.85 516 695.37 517.34 691.93 515.23ZM423.15 522.47C423.29 525.25 423.44 528.02 423.58 530.79C423.35 530.94 423.12 531.09 422.88 531.25C422.83 528.46 422.78 525.66 422.73 522.87C422.87 522.74 423.01 522.61 423.15 522.47ZM79.95 529.17C86.23 527.78 93.66 528.73 100.14 528.72C113.33 528.72 126.53 528.75 139.72 528.74C144.49 528.73 158.8 527.61 162.27 529.42C134.83 529.33 107.39 529.25 79.95 529.17ZM200.28 529.17C200.15 529.32 200.02 529.47 199.89 529.62C196.57 529.55 193.26 529.49 189.94 529.43C190.09 529.2 190.24 528.98 190.39 528.75C193.68 528.89 196.98 529.03 200.28 529.17ZM201.87 529.17C209.52 529.17 217.17 529.17 224.82 529.17C217.17 529.17 209.52 529.17 201.87 529.17ZM238.28 529.17C240.39 529.17 242.5 529.17 244.61 529.17C244.48 529.32 244.35 529.47 244.22 529.62C242.37 529.62 240.52 529.62 238.68 529.62C238.54 529.47 238.41 529.32 238.28 529.17ZM257.28 529.17C259.92 529.17 262.56 529.17 265.2 529.17C265.06 529.32 264.93 529.47 264.8 529.62C262.42 529.61 260.05 529.61 257.67 529.61C257.54 529.46 257.41 529.32 257.28 529.17ZM278.65 529.17C301.35 529.17 324.04 529.17 346.73 529.16C324.04 529.17 301.35 529.17 278.65 529.17ZM360.98 529.17C364.15 529.17 367.32 529.17 370.48 529.17C370.35 529.32 370.22 529.46 370.09 529.61C367.18 529.61 364.28 529.61 361.38 529.61C361.25 529.46 361.11 529.32 360.98 529.17ZM691.09 529.22C691.07 611.69 691.04 694.16 691.02 776.62C688.87 773.29 690.13 766.05 690.14 761.94C690.16 749.8 690.19 737.66 690.16 725.53C690.05 678.82 689.99 632.11 690.2 585.41C690.26 571.42 690.18 557.44 690.22 543.45C690.24 540.3 689.33 530.98 691.09 529.22ZM443.97 636.45C443.86 638.9 443.75 641.35 443.65 643.8C443.56 641.49 443.48 639.18 443.4 636.86C443.59 636.73 443.78 636.59 443.97 636.45ZM451.08 733.09C450.97 735.3 450.86 737.51 450.75 739.72C450.7 737.63 450.66 735.54 450.61 733.44C450.77 733.33 450.93 733.21 451.08 733.09ZM163.78 777.47C163.68 777.6 163.58 777.74 163.47 777.87C158.51 777.83 153.55 777.79 148.58 777.75C153.65 777.65 158.72 777.56 163.78 777.47ZM189.27 777.46C194.61 777.55 199.95 777.64 205.29 777.74C200.06 777.79 194.83 777.84 189.59 777.89C189.49 777.75 189.38 777.6 189.27 777.46ZM669.01 777.47C668.85 777.71 668.69 777.95 668.53 778.18C663.91 778.04 659.29 777.9 654.68 777.76C659.45 777.66 664.23 777.57 669.01 777.47ZM691.87 777.46C697.76 777.57 703.64 777.68 709.53 777.79C705.63 778.33 695.05 779.09 691.87 777.46ZM145.66 791.19C167.14 791.19 188.62 791.18 210.11 791.18C188.62 791.18 167.14 791.19 145.66 791.19Z" fill="#c9aeba" fill-rule="evenodd" stroke="#c9aeba" stroke-width="0.25" stroke-linejoin="round"/>
</svg>